<svg xmlns="http://www.w3.org/2000/svg" width="13.896" height="17.5" viewBox="0 0 13.896 17.5"><defs><style>.a{fill:#b1b1b1;}</style></defs><g transform="translate(0 0)"><path class="a" d="M63.412,4.549H52.754a1.8,1.8,0,0,1,0-3.59H63.416a.479.479,0,0,0,0-.959H52.754A2.758,2.758,0,0,0,50,2.754V14.746A2.758,2.758,0,0,0,52.754,17.5H63.416a.479.479,0,0,0,.479-.479V5.028A.485.485,0,0,0,63.412,4.549Zm-.479,11.992H52.754a1.8,1.8,0,0,1-1.8-1.8v-9.9a2.749,2.749,0,0,0,1.8.667H62.933v11.03Z" transform="translate(-50 0)"/><path class="a" d="M117.779,64.3a.479.479,0,1,0,0,.959h9a.479.479,0,1,0,0-.959Z" transform="translate(-114.874 -61.982)"/></g></svg>