<svg xmlns="http://www.w3.org/2000/svg" width="18.878" height="18.877" viewBox="0 0 18.878 18.877"><defs><style>.a{fill:#b1b1b1;}</style></defs><g transform="translate(0 0)"><path class="a" d="M17.771,10.093V8.339a.553.553,0,0,0-.553-.553A16.684,16.684,0,0,0,14,8.079a4.993,4.993,0,0,0-2.076-1.2,3.871,3.871,0,1,0-4.978,0,4.994,4.994,0,0,0-2.076,1.2,16.687,16.687,0,0,0-3.214-.293.553.553,0,0,0-.553.553v1.754A1.662,1.662,0,0,0,0,11.657v1.106a1.662,1.662,0,0,0,1.106,1.564v1.754a.553.553,0,0,0,.553.553,12.87,12.87,0,0,1,7.473,2.156.555.555,0,0,0,.614,0,12.87,12.87,0,0,1,7.473-2.156.553.553,0,0,0,.553-.553V14.327a1.662,1.662,0,0,0,1.106-1.564V11.657A1.662,1.662,0,0,0,17.771,10.093ZM6.673,3.914A2.765,2.765,0,1,1,9.439,6.68,2.787,2.787,0,0,1,6.673,3.914Zm-5.014,9.4a.554.554,0,0,1-.553-.553V11.657a.553.553,0,1,1,1.106,0v1.106A.554.554,0,0,1,1.659,13.316Zm7.227,4.022a13.838,13.838,0,0,0-6.674-1.8V14.327a1.662,1.662,0,0,0,1.106-1.564V11.657a1.662,1.662,0,0,0-1.106-1.564V8.9a12.5,12.5,0,0,1,6.674,1.951Zm.553-7.446A13.144,13.144,0,0,0,6.221,8.413a3.879,3.879,0,0,1,2.111-.628h2.212a3.879,3.879,0,0,1,2.111.628A13.143,13.143,0,0,0,9.439,9.892Zm7.227,5.644a13.838,13.838,0,0,0-6.674,1.8V10.851A12.5,12.5,0,0,1,16.665,8.9v1.193a1.662,1.662,0,0,0-1.106,1.564v1.106a1.662,1.662,0,0,0,1.106,1.564Zm1.106-2.773a.553.553,0,1,1-1.106,0V11.657a.553.553,0,1,1,1.106,0Z" transform="translate(0 -0.006)"/></g></svg>